# xmcd
#
# Track frame offsets:
#	150
#	28256
#	43261
#	57308
#	77556
#	99499
#	126131
#	151053
#	164914
#	188664
#	207181
#	227843
#
# Disc length: 3389 seconds
#
# Revision: 1
# Processed by: cddbd v1.5.2PL0 Copyright (c) Steve Scherf et al.
# Submitted via: audiograbber 1.83.01
#
DISCID=9f0d3b0c
DTITLE=Steve James - Steve James Live, Vol. I, Austin TX and Berkeley CA
DYEAR=2016
DGENRE=Blues
TTITLE0=The Down Bound Train
TTITLE1=Milwaukee Blues
TTITLE2=Juanita Stomp
TTITLE3=Talco Girl
TTITLE4=Greasy Greens
TTITLE5=Wet Clothes Blues
TTITLE6=I Love My Guitar
TTITLE7=Guitar Rag
TTITLE8=Huggin' and Chalkin'
TTITLE9=Railroad Blues
TTITLE10=Birmingham Steel
TTITLE11=Latex Road Variations-Stewball
EXTD=
EXTT0=
EXTT1=
EXTT2=
EXTT3=
EXTT4=
EXTT5=
EXTT6=
EXTT7=
EXTT8=
EXTT9=
EXTT10=
EXTT11=
PLAYORDER=
